<!--?xml version="1.0" encoding="utf-8"?-->
<!-- Generator: Adobe Illustrator 18.1.1, SVG Export Plug-In . SVG Version: 6.00 Build 0)  -->

<svg version="1.1" id="_x31_0" xmlns="http://www.w3.org/2000/svg" xmlns:xlink="http://www.w3.org/1999/xlink" x="0px" y="0px" viewBox="0 0 512 512" style="width: 32px; height: 32px; opacity: 1;" xml:space="preserve">
<style type="text/css">
	.st0{fill:#374149;}
</style>
<g>
	<path class="st0" d="M256,0C114.562,0,0,114.641,0,256s114.562,256,256,256c44.801,0,86.883-11.519,123.519-31.758
		c11.52-6.402,22.641-13.684,33.043-21.84c1.438-1.043,2.957-2.16,4.398-3.359c16.16-13.122,30.719-28.082,43.122-44.641
		c0.078-0.082,0.16-0.242,0.238-0.32c1.36-1.68,2.641-3.36,3.84-5.039C494.32,363.043,512,311.602,512,256
		C512,114.641,397.359,0,256,0z M103.386,372.375c-1.652-2.164-3.203-4.414-4.766-6.649C97.754,364.481,96.84,363.266,96,362
		c-1.027-1.547-1.969-3.149-2.953-4.726c-1.234-1.985-2.5-3.957-3.664-5.985c-0.661-1.152-1.254-2.343-1.891-3.511
		c-1.343-2.461-2.691-4.918-3.93-7.438c-0.558-1.137-1.05-2.309-1.586-3.457c-1.188-2.539-2.371-5.074-3.446-7.665
		c-0.722-1.742-1.355-3.531-2.027-5.297c-0.754-1.984-1.543-3.953-2.234-5.961c-1.191-3.484-2.278-7.011-3.27-10.582
		c-0.078-0.274-0.172-0.543-0.25-0.817C66.351,290.453,64,273.496,64,256c0-105.84,86.082-192,192-192c105.84,0,192,86.16,192,192
		c0,17.84-2.398,35.043-7.039,51.442c-0.106,0.371-0.214,0.805-0.32,1.222c-0.066,0.16-0.114,0.317-0.211,0.473
		c-0.289-0.676-0.523-1.348-0.75-2.094c-21.039-59.524-52.477-115.684-97.199-149.844c-20.801-15.84-49.039-22-76-22
		c-40.801,0-64.801,21.602-65.68,22c-17.442,1.121-53.68,6.722-69.762,10.641c-14.398,3.602-26.558,9.281-33.758,13.121
		c-6,3.199-8.801,10.641-5.84,16.719c1.281,2.801,3.762,5.121,7.918,5.922c8,1.519,56.402,11.758,69.68,14.238
		c18.082,3.359,30.722,6,41.762,21.762c-1.039,1.598-2.078,3.442-3.282,5.359c-2.398,4-4.957,8.398-7.679,13.359
		c-0.238,0.481-0.481,0.879-0.719,1.442c-14.238,26.16-31.602,65.68-36.32,111.359c-1.59,15.336-2.398,31.79-2.695,44.965
		c-0.09,2.34-0.168,4.418-0.242,5.965c-0.695-0.316-1.32-0.702-1.942-1.09c-20.801-12.398-39.038-28.621-53.793-47.664
		C103.886,372.984,103.625,372.687,103.386,372.375z M239.84,196.879c0-5.278,4.242-9.52,9.519-9.52c5.203,0,9.442,4.242,9.442,9.52
		c0,5.203-4.238,9.441-9.442,9.441C244.082,206.32,239.84,202.082,239.84,196.879z M334.019,203.984
		c0.051,7.504-3.254,15.493-10.019,22.176c-6.481,6.481-30,18.641-39.438,24.082c-0.722,0.398-1.442-0.562-0.882-1.199
		c6.64-7.203,14.562-19.762,10.882-25.122c-6.242-9.042-11.121-20.082-6.882-30.32c5.121-12.402,23.441-17.602,35.922-9.043
		c6.824,4.711,10.32,11.734,10.422,19.258C334.027,203.871,334.019,203.93,334.019,203.984z M125.938,195.199
		c8.398-2.098,40.246-9.137,61.984-4.078c9.153,2.082,13.895,5.203,16.07,8.465c0.118,0.184,0.23,0.367,0.336,0.551
		c2.43,4.214,0.77,8.586-1.207,11.222c-12.48-6.718-24.961-8.16-36-10.16c-3.602-0.718-7.918-1.359-12.64-2
		c-1.598-0.238-3.199-0.477-4.879-0.718c-1.199-0.161-2.398-0.321-3.68-0.481c-5.847-0.832-11.847-1.562-17.691-2.367
		C127.465,195.492,126.695,195.371,125.938,195.199z M183.922,389.043c0.719-10.883,1.68-19.844,4-34
		c6.078-36.082,29.84-77.602,39.84-93.922c9.52,7.438,24.238,15.122,37.52,22.078c6.238,3.282,12.078,6.32,16.16,8.801
		c18.238,10.961,48.801,29.282,64.878,75.442c6.719,19.039,8.321,37.199,8.801,52.878c-7.519,4.481-15.281,8.559-23.359,12.082
		c-2.722,1.199-5.519,2.32-8.242,3.359C302.481,443.68,279.762,448,256,448c-23.598,0-46.238-4.32-67.199-12.238
		c-2.238-0.718-4.398-1.602-6.558-2.562C182.082,424.082,182.16,408,183.922,389.043z" style="fill: rgb(245, 245, 245);"></path>
</g>
</svg>
